<svg xmlns="http://www.w3.org/2000/svg" version="1.1" xmlns:xlink="http://www.w3.org/1999/xlink" width="100" height="50"><svg width="100" height="50" viewBox="0 0 920 350" fill="none" xmlns="http://www.w3.org/2000/svg"><path d="M145.031 17.1153C132.45 26.528 121.471 34.9994 120.785 35.9407C118.04 39.0783 119.298 42.0589 125.702 47.8634C129.248 51.001 132.336 54.6092 132.679 55.7073C133.136 57.433 111.292 102.143 102.829 116.576L100.427 120.969L93.1073 114.223C83.5003 105.438 73.779 101.829 59.5972 101.829C32.8349 101.829 12.5916 120.498 4.58581 152.658C1.38349 165.522 1.61222 166.149 9.84678 166.306C13.7353 166.306 20.3687 166.777 24.6004 167.561C31.8056 168.502 32.3774 168.502 33.0637 165.522C37.2953 147.638 52.8495 137.598 67.4887 143.402C80.0692 148.422 84.9871 156.58 84.9871 172.268C84.9871 178.856 84.5296 181.837 83.6147 181.837C82.8141 181.837 70.8054 183.563 56.9667 185.602C24.2573 190.465 14.6503 195.015 6.18698 209.918C0.582903 219.802 -0.103309 222.625 0.0110594 238.313C0.0110594 250.079 0.468535 254.785 2.4128 260.59C5.7295 270.787 12.9347 280.2 21.9699 285.847C29.1751 290.553 30.0901 290.71 44.958 290.867C59.5972 290.867 60.7409 290.71 66.9168 286.475C70.9197 283.808 75.8376 278.474 79.7261 272.669L86.1308 263.257V276.591V290.083H99.855H113.579V282.082V274.081L118.955 280.513C126.16 289.298 134.051 292.436 146.06 291.181C174.767 288.043 192.837 252.746 191.007 203.173C189.978 176.346 184.945 158.776 173.623 143.402C158.526 122.537 140.113 118.458 123.873 132.264C112.893 141.676 114.494 136.97 135.424 98.0643C143.201 83.7884 149.834 72.0226 150.177 72.0226C150.635 72.0226 154.523 75.1602 158.869 79.0821C167.561 86.7691 170.078 87.5535 171.907 83.1609C172.594 81.2784 173.051 65.12 173.051 41.9021C173.051 3.78073 172.708 -0.298094 169.163 0.0156615C168.476 0.0156615 157.611 7.70268 145.031 17.1153ZM147.661 162.855C156.239 168.816 161.157 180.425 162.758 198.623C165.96 233.45 155.095 258.707 136.682 259.021C128.104 259.178 122.271 254.942 117.239 244.902L113.579 237.529V210.703V183.877L117.01 176.817C120.213 170.385 126.389 163.012 130.735 160.972C134.738 159.09 143.658 160.031 147.661 162.855ZM84.4153 227.018C82.0135 238.941 75.1514 250.236 67.0312 255.727C59.1397 260.904 45.1867 261.06 38.5534 255.883C36.0372 253.844 33.0637 250.079 32.0343 247.726C29.5182 241.921 29.6326 232.352 32.2631 226.39C35.9229 218.233 39.9258 216.507 71.2628 210.389L85.5589 207.722L85.9021 212.428C86.1308 214.938 85.4446 221.527 84.4153 227.018Z" fill="#00A63E"></path><path d="M301.144 188.897V264.982H310.865H320.587V258.393V251.805L324.361 256.825C329.279 263.414 335.226 266.551 342.66 266.551C357.07 266.551 367.021 257.923 373.425 240.196C377.085 230.155 377.199 229.057 377.199 210.859C377.199 193.289 376.971 191.407 373.883 183.092C368.622 168.346 359.015 159.247 347.12 157.207C339.458 155.952 330.194 159.874 324.818 166.62L320.587 172.111V142.461V112.811H310.865H301.144V188.897ZM348.378 182.465C357.185 187.485 362.217 204.271 359.587 219.802C356.727 237.372 349.408 245.373 337.742 244.274C325.39 243.019 320.015 233.45 320.015 212.428C320.015 201.604 320.472 198.937 323.103 192.662C324.933 188.426 327.792 184.347 329.965 182.935C334.54 179.798 343.346 179.484 348.378 182.465Z" fill="#00A63E"></path><path d="M464.12 114.693C460.46 117.517 459.088 120.968 458.973 127.087C458.859 143.245 475.099 147.951 479.674 133.048C483.334 120.498 472.698 107.948 464.12 114.693Z" fill="#00A63E"></path><path d="M389.208 192.819V264.982H398.358H407.507V234.391V203.8H425.12C444.906 203.8 444.105 204.428 444.105 191.093V183.406H425.806H407.507V163.012V142.618H427.064H446.621L445.935 139.009C445.592 137.127 445.249 132.264 445.249 128.028V120.655H417.228H389.208V192.819Z" fill="#00A63E"></path><path d="M244.76 158.305C234.582 161.914 226.461 171.013 222.802 182.935C221.887 186.073 221.2 188.74 221.315 189.053C221.544 189.21 225.318 189.681 229.778 189.838C237.784 190.465 237.898 190.309 241.787 184.661C250.822 171.64 267.977 177.445 267.977 193.76C267.977 200.035 267.863 200.035 250.136 202.074C235.268 203.957 229.206 206.31 224.174 212.899C219.256 219.174 217.655 224.665 217.655 234.862C217.655 254.628 227.148 266.551 242.702 266.551C252.652 266.551 260.086 262.943 264.432 256.197C266.376 253.217 268.092 250.863 268.32 250.863C268.549 250.863 268.549 254.001 268.32 257.923L267.863 264.982H277.012H286.048L285.819 225.292C285.59 189.367 285.247 185.132 283.188 178.7C280.329 170.228 275.869 164.11 269.693 160.502C264.317 157.521 250.822 156.266 244.76 158.305ZM268.549 220.9C267.863 229.057 266.033 235.176 263.174 239.411C260.429 243.49 251.508 247.726 247.391 246.941C245.79 246.628 243.845 246.314 243.045 246.314C239.957 246 235.954 238.627 235.954 232.979C235.954 221.998 243.96 217.291 267.177 214.938C268.778 214.781 269.007 215.723 268.549 220.9Z" fill="#00A63E"></path><path d="M527.023 158.149C522.219 159.874 519.474 162.07 516.272 166.777C512.498 172.268 511.24 171.954 511.812 165.365L512.269 159.874H503.348H494.428V212.428V264.982H503.463H512.498L512.955 229.999C513.413 192.662 514.213 187.798 519.932 182.778C527.137 176.503 537.888 179.327 542.005 188.583C543.949 193.132 544.178 197.211 544.521 229.214L544.864 264.982H554.014H563.163L563.049 228.116C562.935 188.583 562.134 181.053 556.987 170.699C551.841 160.188 537.773 154.227 527.023 158.149Z" fill="#00A63E"></path><path d="M600.219 158.149C590.04 162.071 583.406 169.444 579.518 181.053L576.773 188.897L585.122 189.838L593.357 190.779L597.359 184.818C606.509 171.483 623.664 176.66 623.664 192.819V198.78L614.286 200.349C609.025 201.29 602.049 202.545 598.618 203.016C592.098 203.957 583.178 209.448 579.975 214.311C572.313 225.92 573.113 247.726 581.462 258.237C587.409 265.61 599.532 268.591 609.368 264.826C612.113 263.727 615.887 260.276 618.975 256.197C621.72 252.432 624.122 249.295 624.236 249.295C624.35 249.295 624.236 252.432 623.893 256.354L623.321 263.414H632.356H641.391L641.048 225.449C640.82 204.428 640.248 184.661 639.562 181.367C638.075 173.523 632.242 164.737 626.066 160.972C620.576 157.678 605.823 155.952 600.219 158.149ZM624.808 218.39C624.808 225.763 621.148 236.744 617.488 240.666C607.31 251.334 592.785 247.255 592.785 233.607C592.785 223.096 598.732 218.233 614.515 215.88C624.236 214.468 624.808 214.625 624.808 218.39Z" fill="#00A63E"></path><path d="M690.57 157.521C689.998 157.835 687.94 158.462 686.224 158.933C684.394 159.561 680.734 162.855 677.875 166.463L672.843 172.895V166.306V159.874H664.265H655.688V211.644V263.414H664.151H672.614L673.072 229.999C673.415 203.957 673.872 195.486 675.245 191.25C680.277 175.719 697.432 174.935 702.808 189.681C704.637 194.387 704.866 199.878 704.866 229.214V263.414H714.016H723.165V226.861C723.165 184.975 722.25 177.758 715.502 167.561C710.241 159.561 697.432 154.384 690.57 157.521Z" fill="#00A63E"></path><path d="M762.622 158.149C755.303 160.816 750.499 164.737 745.581 171.64C734.03 187.955 731.514 217.448 739.748 239.882C753.358 276.905 795.789 273.924 805.282 235.333C806.082 232.352 806.654 229.685 806.654 229.528C806.654 229.214 802.651 228.901 797.848 228.901C789.156 228.901 788.927 229.057 786.983 233.607C781.264 247.255 766.282 248.196 758.276 235.333C750.728 222.939 751.3 196.113 759.306 186.23C767.883 175.876 782.751 177.601 786.64 189.367C787.669 192.505 788.584 192.819 797.162 192.819C802.423 192.819 806.654 192.505 806.654 192.191C806.654 191.877 805.854 188.74 804.939 184.975C800.593 168.032 789.728 158.149 774.745 157.364C769.942 157.05 764.567 157.521 762.622 158.149Z" fill="#00A63E"></path><path d="M840.622 158.933C833.874 161.443 827.813 167.875 823.009 177.758C818.434 187.014 817.062 193.446 816.147 208.506C815.118 228.43 820.722 247.098 830.786 257.139C836.39 262.629 840.965 264.512 851.258 265.453C865.898 266.708 875.276 260.433 883.625 243.961L888.886 233.607H879.279C870.701 233.607 869.443 233.921 868.414 236.901C866.126 242.549 860.408 246.157 853.546 246.157C842.681 246.157 835.704 238.784 834.446 226.234C833.874 219.958 833.874 219.958 838.22 219.017C840.736 218.39 853.088 217.919 865.898 217.919H889V209.605C889 192.034 883.282 174.307 875.047 165.992C866.126 157.207 852.745 154.54 840.622 158.933ZM862.466 180.268C866.126 183.406 870.587 193.76 870.701 199.407C870.701 201.917 869.1 202.231 852.402 202.231C831.587 202.231 831.93 202.545 836.733 189.681C838.335 185.132 840.622 181.68 843.252 179.955C848.742 176.19 857.663 176.346 862.466 180.268Z" fill="#00A63E"></path><path d="M460.117 212.428V264.982H469.838H479.559V212.428V159.874H469.838H460.117V212.428Z" fill="#00A63E"></path></svg><style>@media (prefers-color-scheme: light) { :root { filter: none; } }
@media (prefers-color-scheme: dark) { :root { filter: none; } }
</style></svg>